<?xml version="1.0" encoding="UTF-8"?>
<svg width="2634px" height="1000px" viewBox="0 0 2634 1000" version="1.1" xmlns="http://www.w3.org/2000/svg" xmlns:xlink="http://www.w3.org/1999/xlink">
    <title>Final scaled</title>
    <g id="Final-scaled" stroke="none" stroke-width="1" fill="none" fill-rule="evenodd">
        <g id="Group-2" transform="translate(210, 193.132)">
            <path d="M558.583786,0 L396.478,206.332 L546.545602,206.332303 C597.606756,206.332303 639,247.725547 639,298.786701 L639,471.413619 C639,522.474773 597.606756,563.868017 546.545602,563.868017 L92.4543983,563.868017 C41.3932441,563.868017 3.15483034e-14,522.474773 2.84217094e-14,471.413619 L1.42108547e-14,298.786701 C7.95766681e-15,247.725547 41.3932441,206.332303 92.4543983,206.332303 L243.523,206.332 L167.967058,64.8744269 L313.874589,134.081537 L558.583786,0 Z" id="Combined-Shape" fill="#1DB954"></path>
            <g id="Group" transform="translate(55.6215, 294.8154)" fill="#FFFFFF">
                <rect id="Rectangle" x="0" y="0" width="241.425228" height="170.744939" rx="46.2271991"></rect>
                <rect id="Rectangle" x="292.152707" y="0" width="241.425228" height="170.744939" rx="46.2271992"></rect>
            </g>
            <rect id="Rectangle" fill="#106930" x="186.267206" y="321.332592" width="79.5516194" height="120.297571" rx="25.1135371"></rect>
            <rect id="Rectangle" fill="#106930" x="378.355263" y="321.332592" width="79.5516194" height="120.297571" rx="25.1135371"></rect>
        </g>
        <g id="logo" transform="translate(1101, 275)" fill="#000000" fill-rule="nonzero">
            <g id="Shape">
                <path d="M48.915259,313.99079 L48.915259,452.807771 C48.915259,460.74017 46.9322081,466.028436 42.3050895,471.316702 C37.6779709,475.943935 32.3898353,477.927035 25.1186489,477.927035 C18.5183246,478.105492 12.1262519,475.607649 7.39558166,471.001356 C2.66491136,466.395064 -0.00240707394,460.071703 1.62995661e-06,453.468805 L1.62995661e-06,181.784142 C1.62995661e-06,173.851743 2.64407269,167.902444 7.27119132,163.936244 C12.5593269,159.970045 18.5084794,157.325912 25.1186489,157.325912 C30.9953251,157.701241 36.5785417,160.027639 40.9830556,163.936244 C46.2711912,167.902444 48.915259,173.851743 48.915259,181.784142 L48.915259,208.225471 C57.9486563,189.528619 73.4462673,174.73508 92.5423775,166.580377 C112.372886,157.325912 132.203395,152.698679 150.050852,152.698679 C160.627124,152.698679 171.203395,154.020746 182.440683,157.986945 C189.050852,159.970045 195.000002,164.597277 198.30509,169.885543 C201.610174,175.834843 201.610174,182.445175 199.627123,189.716541 C195.000002,203.598239 185.084751,209.547538 170.542378,206.903405 C157.322039,202.937206 146.745768,201.615139 137.49153,201.615139 C109.728819,201.615139 87.9152589,212.191671 72.0508521,233.344735 C55.8748576,257.042796 47.762397,285.321213 48.915259,313.99079 L48.915259,313.99079 Z M387.355936,477.927035 C345.623411,479.063608 305.415177,462.209442 276.966106,431.654708 C247.31566,399.289763 231.637361,356.529712 233.338988,312.668724 C233.338988,266.396397 247.881361,227.395436 276.966106,197.64894 C306.050852,167.24141 343.067801,152.698679 387.355936,152.698679 C433.627123,152.698679 471.305089,168.563477 499.728818,201.615139 L499.728818,181.784142 C499.728818,173.851743 502.372885,167.902444 507.000004,163.936244 C511.579076,159.88925 517.418586,157.553389 523.525428,157.325912 C530.135597,157.325912 535.423733,159.970045 540.711868,163.936244 C546.000004,167.902444 548.644072,173.851743 548.644072,181.784142 L548.644072,452.807771 C548.828194,459.524569 546.240943,466.021292 541.489783,470.772569 C536.738623,475.523847 530.24206,478.111161 523.525428,477.927035 C516.254241,477.927035 510.305089,475.943935 506.338987,471.316702 C501.711868,466.689469 499.728818,460.74017 499.728818,453.468805 L499.728818,427.027475 C486.508479,442.892273 470.644072,455.451904 451.47458,464.70637 C431.644072,473.960835 411.152547,477.927035 387.355936,477.927035 L387.355936,477.927035 Z M387.355936,433.637807 C421.728818,433.637807 448.830513,423.722309 469.322038,403.230278 C489.152546,383.399281 499.728818,352.991752 499.728818,313.329757 C499.728818,274.989829 489.152546,245.904366 469.322038,226.073369 C447.011413,205.769118 417.474312,195.287953 387.355936,196.987906 C356.28814,196.987906 331.169496,208.225471 312.000004,230.039568 C292.573612,253.344903 282.449978,283.010236 283.576276,313.329757 C283.576276,347.042452 292.830513,375.466882 312.000004,399.264079 C331.830513,422.400242 356.28814,433.637807 387.355936,433.637807 L387.355936,433.637807 Z M778.677969,477.927035 C736.717415,479.255705 696.2299,462.385492 667.627122,431.654708 C638.21648,399.185789 622.780041,356.437673 624.661021,312.668724 C624.661021,266.396397 639.203393,227.395436 667.627122,197.64894 C696.711868,167.24141 733.728817,152.698679 778.677969,152.698679 C824.949156,152.698679 861.966105,168.563477 891.05085,201.615139 L891.05085,181.784142 C891.05085,173.851743 893.033901,167.902444 897.66102,163.936244 C902.240092,159.88925 908.079602,157.553389 914.186444,157.325912 C920.796613,157.325912 926.745766,159.970045 932.033901,163.936244 C936.66102,167.902444 939.305088,173.851743 939.305088,181.784142 L939.305088,452.807771 C939.48921,459.524569 936.901959,466.021292 932.150799,470.772569 C927.399639,475.523847 920.903076,478.111161 914.186444,477.927035 C907.576274,477.927035 900.966105,475.943935 897.000003,471.316702 C892.372884,466.689469 890.389834,460.74017 890.389834,453.468805 L890.389834,427.027475 C877.169495,442.892273 861.305088,455.451904 842.135596,464.70637 C822.966105,473.960835 801.813563,477.927035 778.677969,477.927035 L778.677969,477.927035 Z M778.677969,433.637807 C812.389834,433.637807 840.152546,423.722309 859.983054,403.230278 C879.813562,383.399281 890.389834,352.991752 890.389834,313.329757 C890.389834,274.989829 880.474579,245.904366 859.983054,226.073369 C837.836575,205.936428 808.571633,195.46741 778.677969,196.987906 C747.610173,196.987906 722.491529,208.225471 703.322037,230.039568 C683.657616,253.248919 673.295056,282.924254 674.237292,313.329757 C674.237292,347.042452 684.152546,375.466882 703.322037,399.264079 C722.491529,422.400242 747.610173,433.637807 778.677969,433.637807 L778.677969,433.637807 Z M1056.9661,477.927035 C1050.36578,478.105492 1043.97371,475.607649 1039.24304,471.001356 C1034.51236,466.395064 1031.84746,460.071703 1031.84746,453.468805 L1031.84746,23.7971967 C1031.84746,16.5258311 1034.49153,10.5765319 1039.11864,6.61033243 C1044.40678,2.64413297 1050.35593,0 1056.9661,0 C1062.84278,0.375329134 1068.426,2.70172673 1072.83051,6.61033243 C1078.11864,10.5765319 1080.76271,16.5258311 1080.76271,24.45823 L1080.76271,242.5992 C1080.76271,255.158832 1084.0678,261.108131 1091.33898,261.108131 C1095.30509,261.108131 1098.61017,259.786064 1102.57627,256.480898 L1248,156.003845 C1251.9661,153.359712 1256.59322,152.698679 1261.22034,152.698679 C1267.83051,152.698679 1273.11864,154.681779 1277.74576,159.309012 C1282.37288,163.936244 1284.35593,169.885543 1284.35593,177.156909 C1284.35593,186.411374 1280.38983,193.021707 1271.13559,198.971006 L1148.84746,279.617062 C1144.22034,282.922228 1141.57627,286.888427 1141.57627,291.51566 C1141.57627,295.48186 1144.22034,300.770125 1148.84746,305.397358 L1280.38983,432.315741 C1283.0339,434.959874 1285.01695,437.604007 1285.67797,440.24814 L1287,448.841572 C1287,456.112938 1284.35593,462.062237 1279.0678,467.350503 C1273.75476,472.423947 1266.57054,475.058225 1259.23729,474.621868 C1255.27119,474.621868 1250.64407,473.299802 1246.01695,469.333602 L1101.25424,323.245256 C1095.9661,317.95699 1092,315.312857 1088.0339,315.312857 C1083.40678,315.312857 1080.76271,321.923189 1080.76271,333.821788 L1080.76271,452.807771 C1080.76271,460.74017 1078.11864,466.028436 1074.15254,471.316702 C1069.52542,475.943935 1064.23729,477.927035 1056.9661,477.927035 L1056.9661,477.927035 Z"></path>
            </g>
        </g>
    </g>
</svg>