<svg xmlns="http://www.w3.org/2000/svg" width="150" height="150"><g fill="none" fill-rule="evenodd" transform="translate(23 30)"><path fill="#1DB954" d="M88.29 0 62.665 32.567h23.72C94.458 32.567 101 39.11 101 47.18v27.207C101 82.457 94.457 89 86.387 89H14.613C6.543 89 0 82.457 0 74.387V47.18c0-8.07 6.543-14.613 14.613-14.613H38.49L26.549 10.24 49.61 21.163 88.289 0Z"/><g fill="#FFF" transform="translate(8.791 46.533)"><rect width="38.16" height="26.95" rx="7.307"/><rect width="38.16" height="26.95" x="46.178" rx="7.307"/></g><rect width="12.574" height="18.988" x="29.441" y="50.719" fill="#106930" rx="3.969"/><rect width="12.574" height="18.988" x="59.803" y="50.719" fill="#106930" rx="3.969"/></g></svg>