<?xml version="1.0" encoding="UTF-8"?>
<svg width="1000px" height="1000px" viewBox="0 0 1000 1000" version="1.1" xmlns="http://www.w3.org/2000/svg" xmlns:xlink="http://www.w3.org/1999/xlink">
    <title>Final scaled</title>
    <g id="Final-scaled" stroke="none" stroke-width="1" fill="none" fill-rule="evenodd">
        <g id="Group-2" transform="translate(28, 79)">
            <path d="M827.82292,0 L587.582,305.911 L809.925588,305.911667 C885.629695,305.911667 947,367.281972 947,442.986079 L947,698.925588 C947,774.629695 885.629695,836 809.925588,836 L137.074412,836 C61.3703047,836 3.76927887e-14,774.629695 2.84217094e-14,698.925588 L2.84217094e-14,442.986079 C1.91506301e-14,367.281972 61.3703047,305.911667 137.074412,305.911667 L360.901,305.911 L248.927706,96.1838928 L465.163124,198.791494 L827.82292,0 Z" id="Combined-Shape" fill="#1DB954"></path>
            <g id="Group" transform="translate(82.4312, 437.0981)" fill="#FFFFFF">
                <rect id="Rectangle" x="0" y="0" width="357.792943" height="253.149256" rx="68.537206"></rect>
                <rect id="Rectangle" x="432.971227" y="0" width="357.792943" height="253.149256" rx="68.5372061"></rect>
            </g>
            <rect id="Rectangle" fill="#106930" x="276.048583" y="476.412988" width="117.895749" height="178.355158" rx="37.2337433"></rect>
            <rect id="Rectangle" fill="#106930" x="560.723684" y="476.412988" width="117.895749" height="178.355158" rx="37.2337433"></rect>
        </g>
    </g>
</svg>